<svg xmlns="http://www.w3.org/2000/svg" viewBox="0 0 64 64">
  <rect width="64" height="64" rx="14" fill="#07130f"/>
  <rect x="4" y="4" width="56" height="56" rx="12" fill="#0b1f17" stroke="#00e676" stroke-width="4"/>
  <path
    d="M32 12v40M32 20h-8M32 20h8M24 20c-5 0-8 3-8 8 0 4 3 7 8 7M40 20c5 0 8 3 8 8 0 4-3 7-8 7M32 32H20M32 32h12M24 35c-5 0-8 3-8 8M40 35c5 0 8 3 8 8M24 25h-5M40 25h5M24 43h-5M40 43h5"
    fill="none"
    stroke="#00e676"
    stroke-width="4"
    stroke-linecap="round"
    stroke-linejoin="round"
  />
</svg>
